<svg xmlns="http://www.w3.org/2000/svg" xmlns:xlink="http://www.w3.org/1999/xlink" width="31" height="31" viewBox="0 0 31 31">
  <defs>
    <style>
      .cls-1 {
        fill: none;
      }

      .cls-2 {
        fill: #fdd835;
      }

      .cls-3 {
        fill: #fbc02d;
      }

      .cls-4, .cls-5, .cls-6, .cls-7 {
        mix-blend-mode: multiply;
        isolation: isolate;
      }

      .cls-4 {
        fill: url(#linear-gradient);
      }

      .cls-6 {
        fill: url(#radial-gradient);
      }

      .cls-7 {
        fill: url(#radial-gradient-2);
      }

      .cls-8 {
        clip-path: url(#clip-path);
      }

      .cls-9 {
        clip-path: url(#clip-path-2);
      }

      .cls-10 {
        fill: #fab326;
      }

      .cls-11 {
        fill: #fcd93f;
      }
    </style>
    <linearGradient id="linear-gradient" x1="-2.242" y1="0.467" x2="-2.242" y2="1.309" gradientUnits="objectBoundingBox">
      <stop offset="0.02" stop-color="#fff" stop-opacity="0"/>
      <stop offset="1" stop-color="#f9a825"/>
    </linearGradient>
    <radialGradient id="radial-gradient" cx="-0.01" cy="0.484" r="1.357" gradientTransform="matrix(-2, 0, 0, 1, -16.423, 0)" xlink:href="#linear-gradient"/>
    <radialGradient id="radial-gradient-2" cx="0.99" cy="0.484" r="1.357" gradientTransform="matrix(-2, 0, 0, 1, -13.423, 0)" xlink:href="#linear-gradient"/>
    <clipPath id="clip-path">
      <path id="Path_60" data-name="Path 60" class="cls-1" d="M112.244-2245.677a3.027,3.027,0,0,1,3.525-3.252,10.625,10.625,0,0,1,2.127.769c.367,1.58.537,3.2.9,4.79a2.47,2.47,0,0,1,2.09.021,1.972,1.972,0,0,1,.943,2.492,4.654,4.654,0,0,1-1.529,1.58c-.692.552-1.347,1.149-2.031,1.711-.631-3.044-1.07-6.128-1.674-9.175-.265-.74-1.335-.488-1.488.208.671,3.376,1.212,6.777,1.831,10.163.057.368.225.828.651.9.349.082.627-.171.878-.364,1.251-1.04,2.529-2.045,3.776-3.088a3.5,3.5,0,0,0,1.131-3.634,3.637,3.637,0,0,0-3.361-2.542c-.259-1.281-.492-2.567-.665-3.859,3.006,1.089,6.023,2.151,9.029,3.239a2.983,2.983,0,0,1,1.474,4.015,4.916,4.916,0,0,1-1.247,1.335c-2.89,2.389-5.811,4.742-8.672,7.165a4.119,4.119,0,0,1-2.566,1.287,2.984,2.984,0,0,1-3.092-2.482Q113.234-2240.032,112.244-2245.677Z" transform="translate(-112.214 2248.986)"/>
    </clipPath>
    <clipPath id="clip-path-2">
      <path id="Path_59" data-name="Path 59" class="cls-1" d="M0-656.944H256.68V-2289H0Z" transform="translate(0 2289.001)"/>
    </clipPath>
  </defs>
  <g id="Group_37143" data-name="Group 37143" transform="translate(-0.372 -0.179)">
    <circle id="Ellipse_1" data-name="Ellipse 1" class="cls-2" cx="15.5" cy="15.5" r="15.5" transform="translate(0.372 0.179)"/>
    <circle id="Ellipse_2" data-name="Ellipse 2" class="cls-3" cx="14.191" cy="14.191" r="14.191" transform="translate(1.487 1.379)"/>
    <circle id="Ellipse_3" data-name="Ellipse 3" class="cls-4" cx="14.191" cy="14.191" r="14.191" transform="translate(1.487 1.379)"/>
    <g id="Group_33548" data-name="Group 33548" class="cls-5" transform="translate(1.488 1.379)">
      <path id="Path_29608" data-name="Path 29608" class="cls-6" d="M339.585,42.88A13.926,13.926,0,0,0,325.94,28.69a14.19,14.19,0,0,1,0,28.381A13.925,13.925,0,0,0,339.585,42.88Z" transform="translate(-311.75 -28.689)"/>
      <path id="Path_29609" data-name="Path 29609" class="cls-7" d="M45.13,28.67A13.926,13.926,0,0,0,31.486,42.86,13.926,13.926,0,0,0,45.13,57.051a14.19,14.19,0,0,1,0-28.381Z" transform="translate(-30.94 -28.67)"/>
    </g>
    <g id="Group_33550" data-name="Group 33550" transform="translate(7.777 8.116)">
      <g id="Component_6244" data-name="Component 6244" transform="translate(0.368 0.551)">
        <g id="Group_101" data-name="Group 101">
          <g id="Group_48" data-name="Group 48" class="cls-8">
            <g id="Group_47" data-name="Group 47" class="cls-9" transform="translate(-80.008 -28.53)">
              <path id="Path_58" data-name="Path 58" class="cls-10" d="M107.214-2253.985h25.065v24.2H107.214Z" transform="translate(-30.77 2278.951)"/>
            </g>
          </g>
        </g>
      </g>
      <g id="Component_22_1" data-name="Component 22 – 1">
        <g id="Group_101-2" data-name="Group 101">
          <g id="Group_48-2" data-name="Group 48" class="cls-8">
            <g id="Group_47-2" data-name="Group 47" class="cls-9" transform="translate(-80.008 -28.53)">
              <path id="Path_58-2" data-name="Path 58" class="cls-11" d="M107.214-2253.985h25.065v24.2H107.214Z" transform="translate(-30.77 2278.951)"/>
            </g>
          </g>
        </g>
      </g>
    </g>
  </g>
</svg>
